<svg xmlns="http://www.w3.org/2000/svg" width="512" height="512" viewBox="0 0 512 512" role="img" aria-label="Private Meet logo">
  <defs>
    <linearGradient id="pm_grad" x1="0" y1="0" x2="1" y2="1">
      <stop offset="0" stop-color="#6366f1"/>
      <stop offset="1" stop-color="#10b981"/>
    </linearGradient>
    <radialGradient id="pm_glow" cx="35%" cy="30%" r="75%">
      <stop offset="0" stop-color="#6366f1" stop-opacity="0.35"/>
      <stop offset="1" stop-color="#000" stop-opacity="0"/>
    </radialGradient>
  </defs>

  <rect x="40" y="40" width="432" height="432" rx="120" fill="#09090b"/>
  <rect x="40" y="40" width="432" height="432" rx="120" fill="url(#pm_glow)"/>

  <!-- chat bubble -->
  <path
    d="M156 176c0-26.5 21.5-48 48-48h124c26.5 0 48 21.5 48 48v72c0 26.5-21.5 48-48 48H236l-54 44c-6.6 5.4-16 0.7-16-7.8v-36c-6.2-8.5-10-19-10-30v-90z"
    fill="#0a0a0a"
    stroke="#27272a"
    stroke-width="8"
  />

  <!-- three dots -->
  <circle cx="226" cy="232" r="14" fill="#a1a1aa"/>
  <circle cx="266" cy="232" r="14" fill="#a1a1aa"/>
  <circle cx="306" cy="232" r="14" fill="#a1a1aa"/>

  <!-- lock mark -->
  <path
    d="M256 350c-26.5 0-48-21.5-48-48v-12c0-26.5 21.5-48 48-48s48 21.5 48 48v12c0 26.5-21.5 48-48 48z"
    fill="url(#pm_grad)"
    opacity="0.95"
  />
  <path
    d="M236 284v-10c0-11 9-20 20-20s20 9 20 20v10"
    fill="none"
    stroke="#09090b"
    stroke-width="14"
    stroke-linecap="round"
  />
</svg>
